<?xml version="1.0" encoding="utf-8"?>
<svg viewBox="0 0 27 22" xmlns="http://www.w3.org/2000/svg">
  <defs>
    <linearGradient id="a" x1="69.545%" x2="69.545%" y1="96.552%" y2="0%">
      <stop offset="0" stop-color="#98ffcc"/>
      <stop offset="1" stop-color="#98ff98"/>
    </linearGradient>
  </defs>
  <g fill="none" fill-rule="evenodd" transform="matrix(0.51083, 0, 0, 0.510204, 0.889661, 3.445408)">
    <path stroke="url(#a)" stroke-linecap="round" stroke-linejoin="round" stroke-width="2" d="M 7.965 22.005 L 4.295 28.363 L 0.216 21.299 L 4.294 14.235 L 8.373 7.171 L 12.451 0.107 L 20.608 0.107 L 24.686 7.171 L 16.529 7.171 L 12.451 14.235 L 8.373 21.299 L 7.965 22.005 L 8.373 21.299 L 12.451 14.235 L 16.529 7.171 L 24.686 7.171 L 20.608 14.235 L 16.529 21.299 L 12.451 28.363 L 4.294 28.363 L 7.964 22.005 Z M 36.921 0.107 L 40.999 7.171 L 32.843 7.171 L 36.921 0.107 Z M 45.078 14.235 L 49.156 21.299 L 45.078 28.363 L 40.999 21.299 L 36.921 14.235 L 40.999 7.171 L 45.078 14.235 Z M 28.764 14.235 L 32.843 21.299 L 28.764 28.363 L 24.686 21.299 L 28.764 14.235 Z M 24.686 21.299 L 28.764 28.363 L 20.608 28.363 L 16.529 21.299 L 24.686 21.299 Z M 40.999 21.299 L 45.078 28.363 L 36.921 28.363 L 32.843 21.299 L 28.764 14.235 L 36.921 14.235 L 40.999 21.299 Z M 32.843 7.171 L 40.999 7.171 L 36.921 14.235 L 28.764 14.235 L 24.686 21.299 L 16.529 21.299 L 20.608 14.235 L 24.686 7.171 L 28.764 0.107 L 36.921 0.107 L 32.843 7.171 Z"/>
  </g>
</svg>