<svg width="42" height="42" viewBox="0 0 42 42" fill="none" xmlns="http://www.w3.org/2000/svg">
    <linearGradient id="a" x1="69.545%" x2="69.545%" y1="96.552%" y2="0%">
        <stop offset="0" stop-color="#98ffcc"/>
        <stop offset="1" stop-color="#98ff98"/>
    </linearGradient>
    <g id="logo_githab">
        <circle id="Oval 5" cx="21" cy="21" r="20" stroke="url(#a)"/>
        <g id="&#208;&#161;&#208;&#187;&#208;&#190;&#208;&#185; x0020 1">
            <path id="Vector" fill-rule="evenodd" fill="url(#a)" clip-rule="evenodd" d="M20.9989 8.00011C13.821 8.00011 8 13.8203 8 21.0005C8 26.7441 11.7245 31.6165 16.8904 33.3362C17.5407 33.4552 17.7778 33.0536 17.7778 32.709C17.7778 32.4008 17.7667 31.5827 17.7602 30.4984C14.1443 31.2835 13.3811 28.7553 13.3811 28.7553C12.7898 27.2534 11.9377 26.8536 11.9377 26.8536C10.7572 26.0476 12.0269 26.0634 12.0269 26.0634C13.3318 26.1552 14.0181 27.4034 14.0181 27.4034C15.1777 29.3898 17.061 28.8162 17.8017 28.4831C17.9198 27.6434 18.2557 27.0705 18.6269 26.7456C15.7403 26.417 12.7051 25.3021 12.7051 20.3204C12.7051 18.9007 13.2119 17.7412 14.0436 16.8321C13.9094 16.5033 13.4633 15.1817 14.1713 13.3917C14.1713 13.3917 15.2621 13.0422 17.7458 14.7237C18.7824 14.4358 19.8949 14.2921 21.0003 14.2864C22.1049 14.2921 23.2165 14.4357 24.2548 14.7237C26.7369 13.0422 27.8262 13.3917 27.8262 13.3917C28.5356 15.1818 28.0896 16.5033 27.9563 16.8321C28.7894 17.7412 29.2924 18.9007 29.2924 20.3204C29.2924 25.3147 26.2523 26.4137 23.3572 26.7354C23.8232 27.1368 24.239 27.9301 24.239 29.1431C24.239 30.8805 24.2229 32.2825 24.2229 32.7089C24.2229 33.0567 24.4577 33.4615 25.1167 33.3346C30.2786 31.6114 34 26.7424 34 21.0004C34 13.8203 28.179 8 20.9987 8L20.9989 8.00011Z"/>
        </g>
    </g>
</svg>
